/* XPM */
static char * bpmode_tool_dis_xpm[] = {
"24 24 85 1",
" 	c None",
".	c #555555",
"+	c #A9A9A9",
"@	c #AAAAAA",
"#	c #A3A3A3",
"$	c #9A9A9A",
"%	c #ABABAB",
"&	c #ACACAC",
"*	c #A8A8A8",
"=	c #A7A7A7",
"-	c #A6A6A6",
";	c #A5A5A5",
">	c #9E9E9E",
",	c #383838",
"'	c #484848",
")	c #454545",
"!	c #1B1B1B",
"~	c #9B9B9B",
"{	c #A4A4A4",
"]	c #A2A2A2",
"^	c #A1A1A1",
"/	c #959595",
"(	c #1A1A1A",
"_	c #858585",
":	c #717171",
"<	c #505050",
"[	c #A0A0A0",
"}	c #818181",
"|	c #262626",
"1	c #878787",
"2	c #727272",
"3	c #545454",
"4	c #767676",
"5	c #4C4C4C",
"6	c #141414",
"7	c #9F9F9F",
"8	c #797979",
"9	c #0D0D0D",
"0	c #181818",
"a	c #4D4D4D",
"b	c #7D7D7D",
"c	c #494949",
"d	c #252525",
"e	c #9D9D9D",
"f	c #7B7B7B",
"g	c #0E0E0E",
"h	c #737373",
"i	c #242424",
"j	c #6A6A6A",
"k	c #8C8C8C",
"l	c #7F7F7F",
"m	c #616161",
"n	c #313131",
"o	c #202020",
"p	c #0F0F0F",
"q	c #343434",
"r	c #6E6E6E",
"s	c #828282",
"t	c #9C9C9C",
"u	c #999999",
"v	c #989898",
"w	c #222222",
"x	c #585858",
"y	c #5E5E5E",
"z	c #969696",
"A	c #888888",
"B	c #626262",
"C	c #434343",
"D	c #939393",
"E	c #979797",
"F	c #4F4F4F",
"G	c #272727",
"H	c #949494",
"I	c #8D8D8D",
"J	c #929292",
"K	c #686868",
"L	c #868686",
"M	c #5D5D5D",
"N	c #919191",
"O	c #8E8E8E",
"P	c #7A7A7A",
"Q	c #8F8F8F",
"R	c #676767",
"S	c #8A8A8A",
"T	c #909090",
"                        ",
"                        ",
"  ....................  ",
"  .++++@@@#$@%%&%*=-;.  ",
"  .*+@@@@>,'@@%@=-;##.  ",
"  .+++@@@)!~%%@-=;{]^.  ",
"  .@++@@/(_@-;:<;{]^[.  ",
"  .@+@@@}|123456{][77.  ",
"  .@++@@890ab7cd][7>e.  ",
"  .@@@@@fgh#=-ij[7>~~.  ",
"  .%%%@%_|kl:mn[7e~$$.  ",
"  .@@@%%~opqr,s7>t$uv.  ",
"  .%+%%@*'w>xy7>t$vzz.  ",
"  .%%%@*-A9BCDe~$vEz/.  ",
"  .@%@*=-{FGAet~vzzHD.  ",
"  .&@*=;{z3FI~~uz//JJ.  ",
"  .%*-;{vKbLMkvEzHJNN.  ",
"  .+=;#]EOePw<OzHJNQQ.  ",
"  .={{][7>/yRjxSJNQOT.  ",
"  .-#^[[>~$/z/82QOOOQ.  ",
"  .-#^[7e~$vzHHJTQQQN.  ",
"  ....................  ",
"                        ",
"                        "};
