/* XPM */
static char * bpmode_tool_xpm[] = {
"24 24 280 2",
"  	c None",
". 	c #000000",
"+ 	c #9DFB57",
"@ 	c #9AF85A",
"# 	c #96F65C",
"$ 	c #93F45F",
"% 	c #90F262",
"& 	c #8EEF66",
"* 	c #8CED68",
"= 	c #84E166",
"- 	c #7AD262",
"; 	c #83E371",
"> 	c #83E274",
", 	c #7FE176",
"' 	c #7CDE7A",
") 	c #7ADC7D",
"! 	c #77DA80",
"~ 	c #76D984",
"{ 	c #76D787",
"] 	c #74D78C",
"^ 	c #99F859",
"/ 	c #96F65D",
"( 	c #93F460",
"_ 	c #92F262",
": 	c #8EEF65",
"< 	c #8BEC68",
"[ 	c #7FDA62",
"} 	c #2C4D24",
"| 	c #386030",
"1 	c #81E173",
"2 	c #7FDF75",
"3 	c #7DDD79",
"4 	c #7ADB7D",
"5 	c #76D980",
"6 	c #75D884",
"7 	c #74D788",
"8 	c #73D38A",
"9 	c #72D48F",
"0 	c #97F65D",
"a 	c #93F360",
"b 	c #90F062",
"c 	c #8DEC69",
"d 	c #89E96B",
"e 	c #365E2C",
"f 	c #152412",
"g 	c #75CE68",
"h 	c #7FDF77",
"i 	c #7ADA7C",
"j 	c #75D77D",
"k 	c #75D984",
"l 	c #73D58C",
"m 	c #71D38F",
"n 	c #6ED494",
"o 	c #90F162",
"p 	c #8EEE65",
"q 	c #89EA6B",
"r 	c #76CA60",
"s 	c #142311",
"t 	c #64B05A",
"u 	c #7EDF76",
"v 	c #79D776",
"w 	c #76D477",
"x 	c #509356",
"y 	c #38683F",
"z 	c #74D787",
"A 	c #73D58B",
"B 	c #71D48F",
"C 	c #6FD393",
"D 	c #6FD299",
"E 	c #91F163",
"F 	c #8CEB69",
"G 	c #87E86D",
"H 	c #64AD55",
"I 	c #1D331A",
"J 	c #64B15E",
"K 	c #529450",
"L 	c #3C6D3D",
"M 	c #549959",
"N 	c #35633C",
"O 	c #0E1A10",
"P 	c #71D38E",
"Q 	c #6FD293",
"R 	c #6ED197",
"S 	c #6ED09D",
"T 	c #8FEE66",
"U 	c #8CEB68",
"V 	c #89E96A",
"W 	c #86E76D",
"X 	c #85E471",
"Y 	c #5CA052",
"Z 	c #0A1209",
"` 	c #112011",
" .	c #376338",
"..	c #59A25F",
"+.	c #70CE7E",
"@.	c #335F3C",
"#.	c #1A3120",
"$.	c #6FD192",
"%.	c #6ED097",
"&.	c #6DCF9C",
"*.	c #6BCFA0",
"=.	c #8AE96B",
"-.	c #86E86D",
";.	c #84E470",
">.	c #82E173",
",.	c #5CA255",
"'.	c #0B130A",
").	c #529454",
"!.	c #74D37C",
"~.	c #76D983",
"{.	c #75D889",
"].	c #19301F",
"^.	c #4A8A5C",
"/.	c #6FD292",
"(.	c #6DCF9B",
"_.	c #6ACD9F",
":.	c #69CEA4",
"<.	c #8BEA6C",
"[.	c #87E76F",
"}.	c #85E472",
"|.	c #82E273",
"1.	c #7EE076",
"2.	c #61AD5E",
"3.	c #1B311C",
"4.	c #63B66B",
"5.	c #59A663",
"6.	c #50925D",
"7.	c #447E52",
"8.	c #22402B",
"9.	c #6DD197",
"0.	c #6CCF9C",
"a.	c #68CCA2",
"b.	c #68CDA9",
"c.	c #88E86D",
"d.	c #83E470",
"e.	c #81E272",
"f.	c #80E076",
"g.	c #6FC872",
"h.	c #172A19",
"i.	c #0B140C",
"j.	c #24442B",
"k.	c #4E8F5D",
"l.	c #274931",
"m.	c #5AAB76",
"n.	c #6DD298",
"o.	c #6CD09C",
"p.	c #6ACE9F",
"q.	c #68CCA4",
"r.	c #67CBA7",
"s.	c #67CAAB",
"t.	c #87E571",
"u.	c #82E172",
"v.	c #7CDD79",
"w.	c #7ADB7C",
"x.	c #77D980",
"y.	c #335E39",
"z.	c #182C1C",
"A.	c #6FCD86",
"B.	c #3E734D",
"C.	c #417B55",
"D.	c #6FD097",
"E.	c #68CCA3",
"F.	c #67CAA8",
"G.	c #64C8AB",
"H.	c #63C9AF",
"I.	c #83E473",
"J.	c #7FE076",
"K.	c #7DDD7A",
"L.	c #77D97F",
"M.	c #60B171",
"N.	c #09110B",
"O.	c #448056",
"P.	c #2F583E",
"Q.	c #66C08B",
"R.	c #6CCF9B",
"S.	c #6ACD9E",
"T.	c #67CAA7",
"U.	c #65C9AA",
"V.	c #63C9AE",
"W.	c #62C9B3",
"X.	c #7FE075",
"Y.	c #7CDE79",
"Z.	c #77DA7F",
"`.	c #74D888",
" +	c #74D58B",
".+	c #376845",
"++	c #1B3424",
"@+	c #5EB280",
"#+	c #6BCD9C",
"$+	c #69CDA3",
"%+	c #64C9AB",
"&+	c #63C9AD",
"*+	c #62C7B1",
"=+	c #60C7B9",
"-+	c #7DDF7A",
";+	c #79DB7D",
">+	c #76D882",
",+	c #69C483",
"'+	c #3A6E4D",
")+	c #36684C",
"!+	c #61B98B",
"~+	c #69CDA1",
"{+	c #67CBA6",
"]+	c #63C8AE",
"^+	c #62C8B2",
"/+	c #60C5B6",
"(+	c #5EC6BD",
"_+	c #78D97F",
":+	c #75D783",
"<+	c #74D687",
"[+	c #6AC786",
"}+	c #48885F",
"|+	c #57A376",
"1+	c #5CB085",
"2+	c #3F7B5F",
"3+	c #5FBA94",
"4+	c #65C9A9",
"5+	c #64C8AE",
"6+	c #62C6B2",
"7+	c #60C5B7",
"8+	c #5EC4BB",
"9+	c #5CC7C1",
"0+	c #78DB7F",
"a+	c #76D883",
"b+	c #73D48B",
"c+	c #69C689",
"d+	c #63BA87",
"e+	c #6DCE9B",
"f+	c #53A17C",
"g+	c #172D24",
"h+	c #366B59",
"i+	c #5FBEA2",
"j+	c #5DC5BB",
"k+	c #5AC5C0",
"l+	c #58C6C7",
"m+	c #73D687",
"n+	c #71D48E",
"o+	c #6ED196",
"p+	c #66C498",
"q+	c #407D64",
"r+	c #458971",
"s+	c #478D78",
"t+	c #3A7667",
"u+	c #5BB9A6",
"v+	c #5AC5C1",
"w+	c #57C5C5",
"x+	c #55C3CB",
"y+	c #75D787",
"z+	c #72D48A",
"A+	c #71D28E",
"B+	c #6FD197",
"C+	c #6ECE99",
"D+	c #6ACD9D",
"E+	c #69CCA0",
"F+	c #64C7A3",
"G+	c #62C8AE",
"H+	c #50A392",
"I+	c #4A9A8D",
"J+	c #5BC4B9",
"K+	c #59C4C0",
"L+	c #57C4C6",
"M+	c #55C1C8",
"N+	c #52C0CD",
"O+	c #74D88D",
"P+	c #72D58F",
"Q+	c #70D393",
"R+	c #6FD298",
"S+	c #6ED19D",
"T+	c #6BD0A1",
"U+	c #69CEA5",
"V+	c #66CAAB",
"W+	c #63C9B0",
"X+	c #61C7B4",
"Y+	c #61C7B8",
"Z+	c #5CC8BC",
"`+	c #5AC6C2",
" @	c #58C5C7",
".@	c #54C4CB",
"+@	c #50C2CE",
"@@	c #50C0D2",
"                                                ",
"                                                ",
"    . . . . . . . . . . . . . . . . . . . .     ",
"    . + @ # $ % & * = - ; > , ' ) ! ~ { ] .     ",
"    . ^ / ( _ : < [ } | 1 2 3 4 5 6 7 8 9 .     ",
"    . 0 a b : c d e f g h 3 i j k 7 l m n .     ",
"    . ( o p < q r s t u v w x y z A B C D .     ",
"    . E p F q G H I J K L M N O A P Q R S .     ",
"    . T U V W X Y Z `  ...+.@.#.P $.%.&.*..     ",
"    . c =.-.;.>.,.'.).!.~.{.].^./.%.(._.:..     ",
"    . <.[.}.|.1.2.3.4.5.6.7.8.Q 9.0._.a.b..     ",
"    . c.d.e.f.3 g.h.i.j.k.l.m.n.o.p.q.r.s..     ",
"    . t.u.1.v.w.x.y.z.A.B.C.D.(.p.E.F.G.H..     ",
"    . I.J.K.w.L.6 M.N.O.P.Q.R.S.q.T.U.V.W..     ",
"    . X.Y.w.Z.k `. +.+++@+0.#+$+F.%+&+*+=+.     ",
"    . -+;+x.>+z A ,+'+)+!+_.~+{+%+]+^+/+(+.     ",
"    . ) _+:+<+A [+}+|+1+2+3+T.4+5+6+7+8+9+.     ",
"    . 0+a+<+b+P c+d+e+f+g+h+i+5+6+/+j+k+l+.     ",
"    . ~.m+l n+/.o+(.p+q+r+s+t+u+/+j+v+w+x+.     ",
"    . y+z+A+Q B+C+D+E+F+G.G+H+I+J+K+L+M+N+.     ",
"    . O+P+Q+R+S+T+U+b.V+W+X+Y+Z+`+ @.@+@@@.     ",
"    . . . . . . . . . . . . . . . . . . . .     ",
"                                                ",
"                                                "};
